# xmcd CD database file
#
# Track frame offsets:
#	150
#	13880
#	24849
#	34796
#	47350
#	56233
#	68805
#	80984
#	93477
#	104296
#	116951
#	129045
#	142766
#	154381
#	168375
#	180338
#	191354
#	204479
#	218095
#	230078
#
# Disc length: 3207 seconds
#
# Revision: 1
# Processed by: cddbd v1.5.2PL0 Copyright (c) Steve Scherf et al.
# Submitted via: CDex 1.79
#
DISCID=100c8514
DTITLE=Dean Martin - Greatest Hits [CD 2)
DYEAR=2013
DGENRE=Jazz
TTITLE0=Money burns a Hole in My Pocket
TTITLE1=Return to Me
TTITLE2=Watching the World go by
TTITLE3=Angel Baby
TTITLE4=Let it snow let it snow let it snow
TTITLE5=Just say I love Her (Dicitencello Vure)
TTITLE6=Arrivederci, Roma
TTITLE7=Your're breaking My Heart (Mattinata)
TTITLE8=Tu sei bella Signorina
TTITLE9=There's no Tomorrow (O Sole Mio)
TTITLE10=From The Bottom of My Heart (Damn, Damn, Damn)
TTITLE11=I have but One Heart (O Merenariello)
TTITLE12=Sogni D'Oro
TTITLE13=No Dementicar (Don't forget)
TTITLE14=My Heart reminds Me
TTITLE15=Vieni Su (Say You love Me , too)
TTITLE16=In Napoli
TTITLE17=Pardon (Perdoname)
TTITLE18=Take Me in Your Arms (Torna A Sorrento - English Lyrics)
TTITLE19=Buona Sera
EXTD=YEAR: 2013
EXTT0=
EXTT1=
EXTT2=
EXTT3=
EXTT4=
EXTT5=
EXTT6=
EXTT7=
EXTT8=
EXTT9=
EXTT10=
EXTT11=
EXTT12=
EXTT13=
EXTT14=
EXTT15=
EXTT16=
EXTT17=
EXTT18=
EXTT19=
PLAYORDER=
